# xmcd
#
# Track frame offsets:
#	150
#	5037
#	19906
#	26379
#	39184
#	43448
#	56128
#	66631
#	79542
#	112551
#	124164
#	135697
#	143161
#	144693
#	149672
#	161480
#	180714
#	193699
#	215244
#	230509
#	274517
#	285091
#	299438
#	307489
#	321033
#	338069
#	346494
#
# Disc length: 4786 seconds
#
# Revision: 1
# Processed by: cddbd v1.5.2PL0 Copyright (c) Steve Scherf et al.
# Submitted via: EZCDAudioConverter 2.1.7.1
#
DISCID=a912b01b
DTITLE=Beach Boys - Pet Sounds 50th 2/4
DYEAR=2016
DGENRE=
TTITLE0=Sloop John B [Highlights from Tracking Date]
TTITLE1=Sloop John B [Stereo Backing Track]
TTITLE2=Trombone Dixie [Highlights from Tracking Date]
TTITLE3=Trombone Dixie [Stereo Backing Track]
TTITLE4=Pet Sounds [Highlights from Tracking Date]
TTITLE5=Pet Sounds [Stereo Track Without Guitar Overdub]
TTITLE6=Let's Go Away For Awhile [Highlights from Tracking Date]
TTITLE7=Let's Go Away For Awhile [Stereo Track Without String Overdub]
TTITLE8=Wouldn't It Be Nice [Highlights from Tracking Date]
TTITLE9=Wouldn't It Be Nice [Stereo Backing Track]
TTITLE10=Wouldn't It Be Nice [Stereo Track with Background Vocals]
TTITLE11=You Still Believe In Me [Intro - Session]
TTITLE12=You Still Believe In Me [Intro - Master Take]
TTITLE13=You Still Believe In Me [Highlights from Tracking Date]
TTITLE14=You Still Believe In Me [Stereo Backing Track]
TTITLE15=Caroline No [Highlights from Tracking Date]
TTITLE16=Caroline No [Stereo Backing Track]
TTITLE17=Hang On To Your Ego [Highlights from Tracking Date]
TTITLE18=Hang On To Your Ego [Stereo Backing Track]
TTITLE19=I Know There's An Answer [Vocal Session]
TTITLE20=Don't Talk (Put Your Head On My Shoulder) [Brian's Instrumental Demo]
TTITLE21=Don't Talk (Put Your Head On My Shoulder) [Stereo Backing Track]
TTITLE22=Don't Talk (Put Your Head On My Shoulder) [String Overdub]
TTITLE23=I Just Wasn't Made For These Times [Highlights from Tracking Date]
TTITLE24=I Just Wasn't Made For These Times [Stereo Backing Track]
TTITLE25=That's Not Me [Highlights from Tracking Date]
TTITLE26=That's Not Me [Stereo Backing Track]
EXTD=
EXTT0=
EXTT1=
EXTT2=
EXTT3=
EXTT4=
EXTT5=
EXTT6=
EXTT7=
EXTT8=
EXTT9=
EXTT10=
EXTT11=
EXTT12=
EXTT13=
EXTT14=
EXTT15=
EXTT16=
EXTT17=
EXTT18=
EXTT19=
EXTT20=
EXTT21=
EXTT22=
EXTT23=
EXTT24=
EXTT25=
EXTT26=
PLAYORDER=
